<svg xmlns="http://www.w3.org/2000/svg" width="140" height="30" viewBox="0 0 140 30" fill="none">
  <path d="M45.5734 29.1576H40.1739L34.8175 21.771L29.418 29.1576H23.9752L32.0961 18.0561L24.4072 7.55938H29.8067L34.7743 14.3844L39.7419 7.55938H45.1847L37.4957 18.0993L45.5734 29.1576Z" fill="#58dad9"/>
  <path d="M64.2515 7.55938H68.9168V29.1576H64.2515V26.0475C62.4949 28.4953 59.9751 29.7192 56.6922 29.7192C53.726 29.7192 51.1918 28.6249 49.0896 26.4362C46.9873 24.2188 45.9362 21.5262 45.9362 18.3585C45.9362 15.162 46.9873 12.4694 49.0896 10.2808C51.1918 8.09214 53.726 6.99783 56.6922 6.99783C59.9751 6.99783 62.4949 8.20733 64.2515 10.6263V7.55938ZM52.5453 23.3261C53.8412 24.622 55.4683 25.2699 57.4265 25.2699C59.3847 25.2699 61.0118 24.622 62.3077 23.3261C63.6036 22.0014 64.2515 20.3455 64.2515 18.3585C64.2515 16.3715 63.6036 14.73 62.3077 13.4341C61.0118 12.1094 59.3847 11.4471 57.4265 11.4471C55.4683 11.4471 53.8412 12.1094 52.5453 13.4341C51.2494 14.73 50.6015 16.3715 50.6015 18.3585C50.6015 20.3455 51.2494 22.0014 52.5453 23.3261Z" fill="#58dad9"/>
  <path d="M91.4603 1.43988L96.1255 0V29.1576H91.4603V26.0475C89.7036 28.4953 87.1838 29.7192 83.9009 29.7192C80.9347 29.7192 78.4005 28.6249 76.2983 26.4362C74.1961 24.2188 73.145 21.5262 73.145 18.3585C73.145 15.162 74.1961 12.4694 76.2983 10.2808C78.4005 8.09214 80.9347 6.99783 83.9009 6.99783C87.1838 6.99783 89.7036 8.20733 91.4603 10.6263V1.43988ZM79.754 23.3261C81.0499 24.622 82.677 25.2699 84.6352 25.2699C86.5934 25.2699 88.2205 24.622 89.5164 23.3261C90.8123 22.0014 91.4603 20.3455 91.4603 18.3585C91.4603 16.3715 90.8123 14.73 89.5164 13.4341C88.2205 12.1094 86.5934 11.4471 84.6352 11.4471C82.677 11.4471 81.0499 12.1094 79.754 13.4341C78.4581 14.73 77.8102 16.3715 77.8102 18.3585C77.8102 20.3455 78.4581 22.0014 79.754 23.3261Z" fill="#58dad9"/>
  <path d="M111.758 29.7192C108.59 29.7192 105.897 28.6249 103.68 26.4362C101.462 24.2476 100.354 21.555 100.354 18.3585C100.354 15.162 101.462 12.4694 103.68 10.2808C105.897 8.09214 108.59 6.99783 111.758 6.99783C114.954 6.99783 117.647 8.09214 119.835 10.2808C122.053 12.4694 123.161 15.162 123.161 18.3585C123.161 21.555 122.053 24.2476 119.835 26.4362C117.647 28.6249 114.954 29.7192 111.758 29.7192ZM106.963 23.2397C108.259 24.5356 109.857 25.1835 111.758 25.1835C113.658 25.1835 115.256 24.5356 116.552 23.2397C117.848 21.9438 118.496 20.3167 118.496 18.3585C118.496 16.4003 117.848 14.7732 116.552 13.4773C115.256 12.1814 113.658 11.5335 111.758 11.5335C109.857 11.5335 108.259 12.1814 106.963 13.4773C105.667 14.7732 105.019 16.4003 105.019 18.3585C105.019 20.3167 105.667 21.9438 106.963 23.2397Z" fill="#58dad9"/>
  <path d="M139.01 12.0518H133.653V22.419C133.653 23.3117 133.855 23.9596 134.258 24.3628C134.661 24.7372 135.252 24.9532 136.029 25.0108C136.836 25.0396 137.829 25.0252 139.01 24.9676V29.1576C135.439 29.5896 132.876 29.2872 131.321 28.2505C129.766 27.185 128.988 25.2411 128.988 22.419V12.0518H125.014V7.55938H128.988V1.45428L133.653 0.0719942V7.55938H139.01V12.0518Z" fill="#58dad9"/>
  <path d="M6.61838 22.0669C7.37702 23.563 8.46992 24.5819 9.89708 25.1238C11.3168 25.6378 12.8889 25.6637 14.6136 25.2016C17.0058 24.5606 18.5689 23.2176 19.3029 21.1724L23.5977 22.3471C22.3517 25.9306 19.712 28.2628 15.6787 29.3435C12.2851 30.2528 9.26938 29.9578 6.6316 28.4584C3.98637 26.9311 2.23891 24.582 1.38922 21.4109C0.554442 18.2955 0.886757 15.4189 2.38617 12.7811C3.87812 10.1155 6.23745 8.35041 9.46415 7.48582C12.524 6.66595 15.3144 7.06607 17.8354 8.6862C20.3843 10.2989 22.0687 12.6351 22.8886 15.6949C23.0153 16.1678 23.1273 16.8086 23.2248 17.6172L6.61838 22.0669ZM5.59281 18.4063L17.8598 15.1194C17.0992 13.5046 16.047 12.4151 14.7033 11.8509C13.3874 11.2793 11.9923 11.191 10.5181 11.586C8.84909 12.0332 7.58125 12.8648 6.71456 14.0809C5.84786 15.297 5.47395 16.7388 5.59281 18.4063Z" fill="#58dad9"/>
  <path d="M6.61838 22.0646C7.37702 23.5607 8.46992 24.5797 9.89708 25.1215C11.3168 25.6355 12.8889 25.6614 14.6136 25.1993C17.0058 24.5583 18.5689 23.2153 19.3029 21.1702L23.5977 22.3448C22.3517 25.9284 19.712 28.2605 15.6787 29.3412C12.2851 30.2505 9.26938 29.9555 6.6316 28.4561C3.98636 26.9289 2.23891 24.5797 1.38922 21.4086C0.554442 18.2932 0.886757 15.4166 2.38617 12.7788C3.87812 10.1132 6.23745 8.34814 9.46415 7.48354C12.524 6.66367 15.3144 7.0638 17.8354 8.68392C20.3843 10.2966 22.0687 12.6328 22.8886 15.6926C23.0153 16.1655 23.1273 16.8063 23.2248 17.615L6.61838 22.0646ZM5.59281 18.404L17.8598 15.1171C17.0992 13.5023 16.047 12.4128 14.7033 11.8486C13.3874 11.277 11.9923 11.1887 10.5181 11.5837C8.84909 12.0309 7.58125 12.8626 6.71456 14.0787C5.84786 15.2947 5.47395 16.7365 5.59281 18.404Z" fill="#58dad9"/>
  </svg>