<svg style="fill:#58dad9" xmlns="http://www.w3.org/2000/svg" viewBox="0 0 1295.9 299.87"><defs><style>.cls-1{font-size:53.56px;font-family:Poppins-ExtraLight, Poppins;font-weight:200;letter-spacing:0.3em;}</style></defs><g id="Layer_2" data-name="Layer 2"><g id="Layer_1-2" data-name="Layer 1"><polygon points="173.65 0.21 173.65 191.16 144.35 168.52 41.84 87.96 41.84 191.32 0 191.32 0 0.23 41.84 32.6 131.82 100.72 131.82 0.21 173.65 0.21"/><polygon points="465.48 191.16 418.9 191.16 359.52 83.28 299.92 191.16 253.36 191.16 357.95 0.23 465.48 191.16"/><polygon points="697 0 697 38.17 615.79 38.17 615.79 191.16 573.73 191.16 573.73 38.19 492.52 38.19 492.52 0 697 0"/><rect x="780.52" width="41.85" height="191.16"/><path d="M1029.3,0V111q0,33.11-25,56.66-25.41,23.56-60.86,23.57-24.56,0-44.24-11.07l21-33.22.23.14a47.87,47.87,0,0,0,46,.11,41.86,41.86,0,0,0,15.72-15.5A40.85,40.85,0,0,0,987.83,111V38.26H906.78V0Z"/><polygon points="1295.9 191.16 1249.34 191.16 1189.96 83.14 1130.36 191.16 1083.78 191.16 1188.38 0 1295.9 191.16"/><text class="cls-1" transform="translate(166.03 270.25) scale(1.05 1)">software development</text></g></g></svg>