<svg width="38" height="24" viewBox="0 0 38 24" fill="none" xmlns="http://www.w3.org/2000/svg">
  <path d="M9.46686 9.902C9.41886 9.986 9.36686 10.048 9.31086 10.088C9.25886 10.124 9.19286 10.142 9.11286 10.142C9.02886 10.142 8.93686 10.112 8.83686 10.052C8.74086 9.988 8.62486 9.918 8.48886 9.842C8.35286 9.766 8.19286 9.698 8.00886 9.638C7.82886 9.574 7.61486 9.542 7.36686 9.542C7.14286 9.542 6.94686 9.57 6.77886 9.626C6.61086 9.678 6.46886 9.752 6.35286 9.848C6.24086 9.944 6.15686 10.06 6.10086 10.196C6.04486 10.328 6.01686 10.474 6.01686 10.634C6.01686 10.838 6.07286 11.008 6.18486 11.144C6.30086 11.28 6.45286 11.396 6.64086 11.492C6.82886 11.588 7.04286 11.674 7.28286 11.75C7.52286 11.826 7.76886 11.908 8.02086 11.996C8.27286 12.08 8.51886 12.18 8.75886 12.296C8.99886 12.408 9.21286 12.552 9.40086 12.728C9.58886 12.9 9.73886 13.112 9.85086 13.364C9.96686 13.616 10.0249 13.922 10.0249 14.282C10.0249 14.674 9.95686 15.042 9.82086 15.386C9.68886 15.726 9.49286 16.024 9.23286 16.28C8.97686 16.532 8.66286 16.732 8.29086 16.88C7.91886 17.024 7.49286 17.096 7.01286 17.096C6.73686 17.096 6.46486 17.068 6.19686 17.012C5.92886 16.96 5.67086 16.884 5.42286 16.784C5.17886 16.684 4.94886 16.564 4.73286 16.424C4.51686 16.284 4.32486 16.128 4.15686 15.956L4.63086 15.182C4.67086 15.126 4.72286 15.08 4.78686 15.044C4.85086 15.004 4.91886 14.984 4.99086 14.984C5.09086 14.984 5.19886 15.026 5.31486 15.11C5.43086 15.19 5.56886 15.28 5.72886 15.38C5.88886 15.48 6.07486 15.572 6.28686 15.656C6.50286 15.736 6.76086 15.776 7.06086 15.776C7.52086 15.776 7.87686 15.668 8.12886 15.452C8.38086 15.232 8.50686 14.918 8.50686 14.51C8.50686 14.282 8.44886 14.096 8.33286 13.952C8.22086 13.808 8.07086 13.688 7.88286 13.592C7.69486 13.492 7.48086 13.408 7.24086 13.34C7.00086 13.272 6.75686 13.198 6.50886 13.118C6.26086 13.038 6.01686 12.942 5.77686 12.83C5.53686 12.718 5.32286 12.572 5.13486 12.392C4.94686 12.212 4.79486 11.988 4.67886 11.72C4.56686 11.448 4.51086 11.114 4.51086 10.718C4.51086 10.402 4.57286 10.094 4.69686 9.794C4.82486 9.494 5.00886 9.228 5.24886 8.996C5.48886 8.764 5.78486 8.578 6.13686 8.438C6.48886 8.298 6.89286 8.228 7.34886 8.228C7.86086 8.228 8.33286 8.308 8.76486 8.468C9.19686 8.628 9.56486 8.852 9.86886 9.14L9.46686 9.902ZM13.8994 10.748C14.3554 10.748 14.7694 10.822 15.1414 10.97C15.5174 11.118 15.8374 11.328 16.1014 11.6C16.3694 11.872 16.5754 12.204 16.7194 12.596C16.8634 12.988 16.9354 13.426 16.9354 13.91C16.9354 14.398 16.8634 14.838 16.7194 15.23C16.5754 15.622 16.3694 15.956 16.1014 16.232C15.8374 16.508 15.5174 16.72 15.1414 16.868C14.7694 17.016 14.3554 17.09 13.8994 17.09C13.4394 17.09 13.0214 17.016 12.6454 16.868C12.2694 16.72 11.9474 16.508 11.6794 16.232C11.4154 15.956 11.2094 15.622 11.0614 15.23C10.9174 14.838 10.8454 14.398 10.8454 13.91C10.8454 13.426 10.9174 12.988 11.0614 12.596C11.2094 12.204 11.4154 11.872 11.6794 11.6C11.9474 11.328 12.2694 11.118 12.6454 10.97C13.0214 10.822 13.4394 10.748 13.8994 10.748ZM13.8994 15.95C14.4114 15.95 14.7894 15.778 15.0334 15.434C15.2814 15.09 15.4054 14.586 15.4054 13.922C15.4054 13.258 15.2814 12.752 15.0334 12.404C14.7894 12.056 14.4114 11.882 13.8994 11.882C13.3794 11.882 12.9934 12.058 12.7414 12.41C12.4934 12.758 12.3694 13.262 12.3694 13.922C12.3694 14.582 12.4934 15.086 12.7414 15.434C12.9934 15.778 13.3794 15.95 13.8994 15.95ZM18.3456 17V11.96L17.8116 11.876C17.6956 11.852 17.6016 11.812 17.5296 11.756C17.4616 11.696 17.4276 11.612 17.4276 11.504V10.898H18.3456V10.55C18.3456 10.198 18.3976 9.882 18.5016 9.602C18.6096 9.322 18.7616 9.084 18.9576 8.888C19.1576 8.692 19.3996 8.542 19.6836 8.438C19.9676 8.334 20.2876 8.282 20.6436 8.282C20.9276 8.282 21.1916 8.32 21.4356 8.396L21.4056 9.134C21.4016 9.19 21.3856 9.236 21.3576 9.272C21.3296 9.308 21.2916 9.336 21.2436 9.356C21.1996 9.372 21.1476 9.384 21.0876 9.392C21.0276 9.396 20.9636 9.398 20.8956 9.398C20.7196 9.398 20.5616 9.418 20.4216 9.458C20.2856 9.494 20.1696 9.56 20.0736 9.656C19.9776 9.748 19.9036 9.872 19.8516 10.028C19.8036 10.18 19.7796 10.37 19.7796 10.598V10.898H22.2336V10.352C22.2336 10 22.2856 9.684 22.3896 9.404C22.4976 9.124 22.6496 8.886 22.8456 8.69C23.0456 8.494 23.2876 8.344 23.5716 8.24C23.8556 8.136 24.1756 8.084 24.5316 8.084C24.6716 8.084 24.8056 8.094 24.9336 8.114C25.0656 8.13 25.1956 8.156 25.3236 8.192L25.2876 8.936C25.2796 9.052 25.2256 9.126 25.1256 9.158C25.0296 9.186 24.9156 9.2 24.7836 9.2C24.6076 9.2 24.4496 9.22 24.3096 9.26C24.1736 9.296 24.0576 9.362 23.9616 9.458C23.8656 9.55 23.7916 9.674 23.7396 9.83C23.6916 9.982 23.6676 10.172 23.6676 10.4V10.898H25.2636V11.954H23.7156V17H22.2336V11.954H19.8276V17H18.3456ZM27.9473 17H26.3273V8.324H27.9473V17ZM35.9498 9.65H33.3338V17H31.7198V9.65H29.1038V8.324H35.9498V9.65Z" fill="#58DAD9"/>
  </svg>
  