<svg width="115" height="119" viewBox="0 0 115 119" fill="none" xmlns="http://www.w3.org/2000/svg">
  <rect width="115" height="119" fill="#58DAD9"/>
  <path d="M0 59.5V119H115V0H0V59.5ZM92.6716 54.74C95.426 55.4014 97.9294 56.8921 99.866 59.024C100.932 60.1725 101.859 61.4513 102.626 62.832C102.626 62.9843 97.658 66.4591 94.6312 68.4012C94.5208 68.4774 94.0792 67.9823 93.5916 67.2302C93.0391 66.2437 92.254 65.418 91.3096 64.8303C90.3652 64.2427 89.2924 63.9122 88.1912 63.8697C84.7044 63.6222 82.4596 65.5166 82.478 68.6297C82.4492 69.4047 82.6207 70.1737 82.9748 70.8574C83.7384 72.5043 85.1644 73.4849 89.6356 75.4841C97.8696 79.1493 101.393 81.5674 103.583 85.0041C106.03 88.8121 106.573 94.962 104.917 99.5126C103.077 104.463 98.5688 107.824 92.1932 108.937C89.2813 109.282 86.3391 109.251 83.4348 108.842C79.0024 108.098 74.9136 105.914 71.76 102.607C70.702 101.398 68.6412 98.2464 68.77 98.0179C69.1059 97.7599 69.4595 97.5277 69.828 97.323L74.06 94.8097L77.3628 92.8295L78.0528 93.8862C79.2173 95.6099 80.6992 97.0787 82.4136 98.2083C86.0936 100.208 91.1168 99.9314 93.6008 97.6181C94.4348 96.7704 94.9551 95.6469 95.0711 94.4431C95.1871 93.2394 94.8914 92.0317 94.2356 91.0302C93.3156 89.707 91.4756 88.5931 86.3328 86.2702C80.3988 83.6237 77.8412 81.9862 75.5044 79.3778C74.0456 77.6564 72.9685 75.6256 72.3488 73.4278C71.8865 70.9168 71.8182 68.3452 72.1464 65.8118C73.37 59.8808 77.6664 55.7396 83.9408 54.5115C86.8465 54.1395 89.7899 54.2229 92.6716 54.759V54.74ZM65.6788 59.7285V64.6027H50.7472V108.614H40.158V64.5932H25.1896V59.8332C25.1494 58.1946 25.1924 56.5549 25.3184 54.9209C25.3736 54.8447 34.5184 54.8066 45.5584 54.8257H65.6236L65.6788 59.7285Z" fill="#10172A"/>
  </svg>
  